<?xml version="1.0" encoding="utf-8"?>
<!-- Generator: Adobe Illustrator 25.3.1, SVG Export Plug-In . SVG Version: 6.00 Build 0)  -->
<svg version="1.1" id="Слой_1" xmlns="http://www.w3.org/2000/svg" xmlns:xlink="http://www.w3.org/1999/xlink" x="0px" y="0px"
	 viewBox="0 0 443.78 83.01" style="enable-background:new 0 0 443.78 83.01;" xml:space="preserve">
<style type="text/css">
	.st0{fill:#FFFFFF;}
</style>
<g id="CRYSTAL">
	<path class="st0" d="M56.03,17.63c-4.38-5.95-11.37-8.97-18.47-8.97c-16.49,0-28.17,14.5-28.17,30.67
		c0,17.11,11.58,30.67,28.17,30.67c8.97,0,16.17-3.65,21.39-10.33l6.57,5.53c-6.57,8.87-16.17,12.94-27.96,12.94
		C16.38,78.14,0,61.76,0,39.33C0,17.63,15.65,0.52,37.56,0.52c10.02,0,19.82,3.44,26.08,11.58L56.03,17.63z"/>
	<path class="st0" d="M78.25,2.4h18.88c14.29,0,29.42,2.09,29.42,20.34c0,10.75-6.99,17.74-18.47,19.51l20.97,34.01h-10.75
		L98.28,43.09H87.02v33.18h-8.76V2.4z M87.02,34.95h7.82c9.7,0,22.33,0,22.33-12.21c0-10.64-9.29-12.21-17.84-12.21H87.02V34.95z"/>
	<polygon class="st0" points="159.94,44.44 132.4,2.4 143.56,2.4 164.33,35.78 185.72,2.4 196.25,2.4 168.71,44.44 168.71,76.27 
		159.94,76.27 	"/>
	<path class="st0" d="M240.07,15.44c-2.92-4.69-8.14-6.78-13.46-6.78c-7.72,0-15.76,3.65-15.76,12.42c0,6.78,3.76,9.81,15.55,13.56
		c11.48,3.65,22.12,7.41,22.12,21.91c0,14.71-12.62,21.6-25.98,21.6c-8.56,0-17.74-2.82-22.75-10.22l7.51-6.16
		c3.13,5.43,9.39,8.24,15.75,8.24c7.51,0,16.07-4.38,16.07-12.83c0-9.08-6.16-10.64-19.3-15.02c-10.43-3.44-18.36-8.03-18.36-20.35
		c0-14.19,12.21-21.28,25.15-21.28c8.24,0,15.23,2.29,20.66,8.66L240.07,15.44z"/>
	<polygon class="st0" points="313.11,10.54 288.69,10.54 288.69,76.27 279.93,76.27 279.93,10.54 255.52,10.54 255.52,2.4 
		313.11,2.4 	"/>
	<path class="st0" d="M347.96,2.4h8.24l31.41,73.87h-10.22l-7.51-18.15h-36.93l-7.62,18.15h-9.91L347.96,2.4z M351.92,13.67h-0.21
		l-15.34,36.31h30.15L351.92,13.67z"/>
	<polygon class="st0" points="397.93,2.4 406.7,2.4 406.7,68.13 440.5,68.13 440.5,76.27 397.93,76.27 	"/>
</g>
</svg>
