<?xml version="1.0" encoding="utf-8"?>
<!-- Generator: Adobe Illustrator 25.3.1, SVG Export Plug-In . SVG Version: 6.00 Build 0)  -->
<svg version="1.1" id="Слой_1" xmlns="http://www.w3.org/2000/svg" xmlns:xlink="http://www.w3.org/1999/xlink" x="0px" y="0px"
	 viewBox="0 0 206.31 176.57" style="enable-background:new 0 0 206.31 176.57;" xml:space="preserve">
<style type="text/css">
	.st0{fill:#F2F2F2;}
	.st1{fill:#FFFFFF;}
</style>
<g>
	<polygon class="st0" points="13.58,24.79 26.05,2.42 38.53,24.79 51,47.15 26.05,47.15 1.1,47.15 	"/>
	<polygon class="st0" points="65.28,24.79 77.75,2.42 90.23,24.79 102.7,47.15 77.75,47.15 52.8,47.15 	"/>
	<polygon class="st0" points="116.98,24.79 129.45,2.42 141.93,24.79 154.4,47.15 129.45,47.15 104.51,47.15 	"/>
	<polygon class="st0" points="168.68,24.79 181.16,2.42 193.63,24.79 206.11,47.15 181.16,47.15 156.21,47.15 	"/>
	<polygon class="st0" points="52.08,1.21 27.13,1.21 39.6,23.58 52.08,45.95 64.55,23.58 77.03,1.21 	"/>
	<polygon class="st0" points="103.68,1.21 128.63,1.21 116.15,23.58 103.68,45.95 91.2,23.58 78.73,1.21 	"/>
	<polygon class="st0" points="155.28,1.21 180.23,1.21 167.75,23.58 155.28,45.95 142.8,23.58 130.33,1.21 	"/>
	<polygon class="st1" points="1.03,47.99 102.14,174.74 51.36,47.99 	"/>
	<polygon class="st1" points="52.8,47.99 103.03,47.99 103.1,173.03 	"/>
	<polygon class="st1" points="154.65,47.99 104.51,47.99 104.35,173.03 	"/>
	<polygon class="st1" points="155.96,47.99 206.31,47.99 105.19,174.74 	"/>
</g>
</svg>
