<?xml version="1.0" encoding="utf-8"?>
<!-- Generator: Adobe Illustrator 25.3.1, SVG Export Plug-In . SVG Version: 6.00 Build 0)  -->
<svg version="1.1" id="Слой_1" xmlns="http://www.w3.org/2000/svg" xmlns:xlink="http://www.w3.org/1999/xlink" x="0px" y="0px"
	 viewBox="0 0 175 172.32" style="enable-background:new 0 0 175 172.32;" xml:space="preserve">
<style type="text/css">
	.st0{fill-rule:evenodd;clip-rule:evenodd;fill:#010202;}
</style>
<g id="_x37__stroke">
	<g id="Instagram_1_">
		<path id="Instagram" class="st0" d="M140.23,41.67c0,5.51-4.47,9.97-9.97,9.97c-5.51,0-9.97-4.46-9.97-9.97s4.47-9.97,9.97-9.97
			C135.76,31.7,140.23,36.16,140.23,41.67z M85.89,113.73c-15.3,0-27.7-12.4-27.7-27.7s12.4-27.7,27.7-27.7s27.7,12.4,27.7,27.7
			S101.19,113.73,85.89,113.73z M85.89,43.35c-23.57,0-42.68,19.11-42.68,42.68s19.11,42.68,42.68,42.68s42.68-19.11,42.68-42.68
			S109.46,43.35,85.89,43.35z M85.89,17.9c22.19,0,24.82,0.08,33.58,0.48c8.1,0.37,12.5,1.72,15.43,2.86
			c3.88,1.51,6.65,3.31,9.56,6.22c2.91,2.91,4.71,5.68,6.22,9.56c1.14,2.93,2.49,7.33,2.86,15.43c0.4,8.76,0.48,11.39,0.48,33.58
			s-0.08,24.82-0.48,33.58c-0.37,8.1-1.72,12.5-2.86,15.43c-1.51,3.88-3.31,6.65-6.22,9.56c-2.91,2.91-5.68,4.71-9.56,6.22
			c-2.93,1.14-7.33,2.49-15.43,2.86c-8.76,0.4-11.39,0.48-33.58,0.48c-22.19,0-24.82-0.08-33.58-0.48
			c-8.1-0.37-12.5-1.72-15.43-2.86c-3.88-1.51-6.65-3.31-9.56-6.22c-2.91-2.91-4.71-5.68-6.22-9.56c-1.14-2.93-2.49-7.33-2.86-15.43
			c-0.4-8.76-0.48-11.39-0.48-33.58c0-22.19,0.08-24.82,0.48-33.58c0.37-8.1,1.72-12.5,2.86-15.43c1.51-3.88,3.31-6.65,6.22-9.56
			c2.91-2.91,5.68-4.71,9.56-6.22c2.93-1.14,7.33-2.49,15.43-2.86C61.07,17.98,63.7,17.9,85.89,17.9z M85.89,2.92
			c-22.57,0-25.4,0.1-34.26,0.5c-8.85,0.4-14.89,1.81-20.17,3.86c-5.47,2.12-10.1,4.97-14.72,9.59s-7.46,9.25-9.59,14.72
			C5.1,36.88,3.69,42.92,3.29,51.77c-0.4,8.86-0.5,11.69-0.5,34.26s0.1,25.4,0.5,34.26c0.4,8.85,1.81,14.89,3.86,20.17
			c2.12,5.47,4.97,10.1,9.59,14.72s9.25,7.46,14.72,9.59c5.29,2.05,11.33,3.46,20.17,3.86c8.86,0.4,11.69,0.5,34.26,0.5
			s25.4-0.1,34.26-0.5c8.85-0.4,14.89-1.81,20.17-3.86c5.47-2.12,10.1-4.97,14.72-9.59s7.46-9.25,9.59-14.72
			c2.05-5.29,3.46-11.33,3.86-20.17c0.4-8.86,0.5-11.69,0.5-34.26s-0.1-25.4-0.5-34.26c-0.4-8.85-1.81-14.89-3.86-20.17
			c-2.12-5.47-4.97-10.1-9.59-14.72c-4.62-4.62-9.25-7.46-14.72-9.59c-5.29-2.05-11.33-3.46-20.17-3.86
			C111.29,3.02,108.46,2.92,85.89,2.92z"/>
	</g>
</g>
</svg>
