<?xml version="1.0" encoding="utf-8"?>
<!-- Generator: Adobe Illustrator 25.3.1, SVG Export Plug-In . SVG Version: 6.00 Build 0)  -->
<svg version="1.1" id="Слой_1" xmlns="http://www.w3.org/2000/svg" xmlns:xlink="http://www.w3.org/1999/xlink" x="0px" y="0px"
	 viewBox="0 0 293.01 172.32" style="enable-background:new 0 0 293.01 172.32;" xml:space="preserve">
<style type="text/css">
	.st0{fill:#010202;}
</style>
<g id="color_x5F_fill">
	<path class="st0" d="M285.53,166.63c-10.21,6.39-51.73,8.3-61.78,0.99c-5.51-4-10.55-9.02-15.35-13.78
		c-3.34-3.34-7.15-4.96-10.03-8.58c-2.34-2.96-3.95-6.46-6.43-9.38c-4.17-4.91-10.6-9.08-15.69-3.09c-7.65,9.01,1.21,26.73-9,33.47
		c-3.43,2.26-6.88,2.92-11.16,2.59l-9.48,0.43c-5.57,0.11-14.39,0.16-20.72-0.99c-7.07-1.27-12.9-5.13-19.28-7.97
		c-12.13-5.38-23.68-12.7-32.47-22.85C50.23,109.84,18.09,71.82,5.61,37.07c-2.57-7.14-9.35-21.28-2.92-27.4
		c8.74-6.35,51.66-8.15,58.35,1.68c2.72,3.99,4.44,9.84,6.36,14.36c2.39,5.64,3.69,10.96,7.43,15.95c3.31,4.43,5.76,8.88,8.33,13.74
		c2.88,5.45,5.59,10.68,9.1,15.7c2.38,3.41,8.66,10.2,12.62,10.7c9.69,1.24,9.08-22.3,8.36-28.05c-0.69-5.54-0.87-11.41-0.69-17.03
		c0.16-4.79,0.59-11.54-2.25-15.45c-4.63-6.38-14.93-1.6-15.73-10.18c1.7-2.44,1.34-4.6,12.71-8.34C116.22-0.2,122-0.11,127.9,0.37
		c12.04,0.97,24.8-2.29,36.41,1.61c11.09,3.74,9.38,19.5,9.01,28.95c-0.5,12.91,0.03,25.5,0,38.59c-0.02,5.97-0.25,11.76,7.01,11.28
		c6.82-0.46,7.51-6.19,10.76-10.92c4.53-6.6,8.68-13.28,13.29-19.86c6.21-8.88,8.08-18.86,13.92-27.96
		c2.09-3.26,3.89-10.37,7.11-12.95C227.85,7.16,232.48,8,235.43,8h7.01c5.37,0.06,10.85,0.14,16.36,0.34
		c7.95,0.27,16.84-1.45,24.73-0.34c34,4.8-42.73,77.52-38.74,90.49c2.76,8.96,20.26,19,26.58,26.34
		C279.8,134.6,305.61,154.06,285.53,166.63z"/>
</g>
</svg>
