<?xml version="1.0" encoding="utf-8"?>
<!-- Generator: Adobe Illustrator 25.3.1, SVG Export Plug-In . SVG Version: 6.00 Build 0)  -->
<svg version="1.1" id="Слой_1" xmlns="http://www.w3.org/2000/svg" xmlns:xlink="http://www.w3.org/1999/xlink" x="0px" y="0px"
	 viewBox="0 0 181 172.32" style="enable-background:new 0 0 181 172.32;" xml:space="preserve">
<style type="text/css">
	.st0{fill:#010202;}
</style>
<g>
	<path id="WhatsApp" class="st0" d="M176.33,83.98c0,45.45-37.13,82.29-82.93,82.29c-14.54,0-28.2-3.72-40.09-10.24L7.39,170.63
		l14.97-44.15c-7.55-12.4-11.9-26.94-11.9-42.49c0-45.45,37.13-82.29,82.93-82.29C139.21,1.69,176.33,38.53,176.33,83.98z
		 M93.4,14.8c-38.45,0-69.73,31.04-69.73,69.19c0,15.14,4.93,29.16,13.28,40.56l-8.71,25.7l26.8-8.52
		c11.01,7.23,24.2,11.44,38.36,11.44c38.44,0,69.73-31.03,69.73-69.18S131.84,14.8,93.4,14.8z M135.28,102.94
		c-0.51-0.84-1.87-1.35-3.9-2.35c-2.03-1.01-12.03-5.89-13.89-6.56c-1.86-0.67-3.22-1.01-4.58,1.01c-1.35,2.02-5.25,6.56-6.44,7.91
		c-1.19,1.35-2.37,1.52-4.41,0.51c-2.03-1.01-8.58-3.14-16.35-10.01c-6.04-5.35-10.12-11.95-11.31-13.97
		c-1.18-2.02-0.12-3.11,0.89-4.11c0.92-0.9,2.03-2.36,3.05-3.53c1.02-1.18,1.36-2.02,2.03-3.37c0.68-1.35,0.34-2.52-0.17-3.53
		c-0.51-1.01-4.58-10.93-6.27-14.97c-1.69-4.04-3.38-3.36-4.57-3.36c-1.18,0-2.54-0.17-3.9-0.17c-1.36,0-3.56,0.5-5.42,2.52
		c-1.86,2.02-7.11,6.9-7.11,16.82c0,9.93,7.28,19.52,8.3,20.86c1.02,1.34,14.06,22.37,34.73,30.45c20.67,8.07,20.67,5.38,24.4,5.04
		c3.72-0.34,12.02-4.88,13.73-9.59C135.78,107.81,135.78,103.78,135.28,102.94z"/>
</g>
</svg>
